# xmcd
#
# Track frame offsets: 
#        180
#        15817
#        45660
#
# Disc length: 843 seconds
#
# Revision: 0
# Processed by: cddbd v1.5.2PL0 Copyright (c) Steve Scherf et al.
# Submitted via: ExactAudioCopy v0.99pb5
#
DISCID=13034903
DTITLE=El Fish - Sonny Boy's Advice
DYEAR=2000
DGENRE=Blues
TTITLE0=Sonny Boy's Advice
TTITLE1=7 Cigarettes
TTITLE2=The Crash
EXTD=
EXTT0=
EXTT1=
EXTT2=
PLAYORDER=
